<?xml version="1.0" encoding="UTF-8" standalone="no"?>
<!-- Created with Inkscape (http://www.inkscape.org/) -->

<svg
   width="1920.3459"
   height="393.88159"
   version="1.1"
   viewBox="0 0 1920.3459 393.88159"
   xml:space="preserve"
   id="svg1"
   xmlns="http://www.w3.org/2000/svg"
   xmlns:svg="http://www.w3.org/2000/svg"><defs
     id="defs1" /><path
     style="display:inline;fill:#f9be2b;fill-opacity:1;stroke:none;stroke-width:0.9;stroke-dasharray:none;stroke-opacity:1;paint-order:fill markers stroke"
     d="m 0,33.767575 c 0,0 95,-125 658,106.000005 563,231 53,24 230,10 177,-14 172.5273,-5.08153 181.7888,-0.67697 48.4185,23.02673 79.6133,-27.08452 304.4732,-43.34798 224.86,-16.263465 267.738,107.02495 359.738,97.02495 92,-10 41.8361,-107.384035 173.4549,-74.70311 0.5105,0.12676 12.5937,4.23728 12.5828,0.81767 -0.019,-5.88579 -1.0499,208.08645 -1.0499,208.08645 L 0.45342711,299.86325 Z"
     id="path177" /><path
     style="fill:#00580b;fill-opacity:1;stroke:none;stroke-width:0.9;stroke-dasharray:none;stroke-opacity:1;paint-order:fill markers stroke"
     d="m 98.5,63.767575 c 0,0 77,-24 123,6 46,30 25,55.000005 123,69.500005 98,14.5 145.48867,26.03989 163.5,28 68.31586,7.43458 91.06802,-2.65641 91.06802,-2.65641 0,0 172.41095,-44.13785 313.43198,-9.34359 29.51556,7.2824 50.81876,22.5471 69.50969,23.23748 80.67141,2.97972 135.42311,-55.99612 172.90451,-32.87612 13.3743,8.24981 13.6574,64.9814 243.6685,57.78811 101.3177,-3.16858 225.6977,2.16407 411.6107,-48.5305 59.9375,-16.3437 107.2137,-14.73083 109.7585,-9.56195 0.2689,0.54614 0.3967,14.1459 0.3919,26.85785 -9e-4,2.25345 -0.2881,40.17903 -0.1158,49.15318 2.1051,109.65862 -49.2235,101.84234 -49.2235,101.84234 L 21.213203,328.83482 0,81.347445 Z"
     id="path176" /><path
     style="fill:#e54210;fill-opacity:1;stroke:none;stroke-width:0.9;stroke-dasharray:none;stroke-opacity:1;paint-order:fill markers stroke"
     d="M 0,393.88158 V 64.767575 c 0,0 114.39418,-53.79508 316,124.000005 41.48808,36.58811 150.74526,49.62061 194,48 48.96318,-1.83449 83,43 186,35 0,0 460,-118 597,-30 137,88 285,-40 337,-38 52,2 289.4439,57.62223 290.228,13.74143 0.2655,-14.85756 0,176.37257 0,176.37257 z"
     id="path175" /></svg>
