<?xml version="1.0" encoding="UTF-8" standalone="no"?>
<!-- Created with Inkscape (http://www.inkscape.org/) -->

<svg
   width="1920"
   height="942"
   version="1.1"
   viewBox="0 0 1920 942"
   xml:space="preserve"
   id="svg1"
   sodipodi:docname="teste2.svg"
   inkscape:export-filename="teste3.svg"
   inkscape:export-xdpi="96"
   inkscape:export-ydpi="96"
   inkscape:version="1.4.2 (f4327f4, 2025-05-13)"
   xmlns:inkscape="http://www.inkscape.org/namespaces/inkscape"
   xmlns:sodipodi="http://sodipodi.sourceforge.net/DTD/sodipodi-0.dtd"
   xmlns="http://www.w3.org/2000/svg"
   xmlns:svg="http://www.w3.org/2000/svg"><defs
     id="defs1" /><sodipodi:namedview
     id="namedview1"
     pagecolor="#ffffff"
     bordercolor="#999999"
     borderopacity="1"
     inkscape:showpageshadow="2"
     inkscape:pageopacity="0"
     inkscape:pagecheckerboard="0"
     inkscape:deskcolor="#d1d1d1"
     inkscape:zoom="0.5"
     inkscape:cx="337"
     inkscape:cy="513"
     inkscape:window-width="1920"
     inkscape:window-height="1017"
     inkscape:window-x="-8"
     inkscape:window-y="-8"
     inkscape:window-maximized="1"
     inkscape:current-layer="svg1"
     showguides="true"><sodipodi:guide
       position="195.16147,-45.121062"
       orientation="0,-1"
       id="guide177"
       inkscape:locked="false" /></sodipodi:namedview><path
     style="fill:#0d330e;fill-opacity:1;stroke:none;stroke-width:0.9;stroke-dasharray:none;stroke-opacity:1;paint-order:fill markers stroke"
     d="m 98.5,789.59293 c 0,0 77,-24 123,6 46,30 25,55 123,69.5 98,14.5 145.48867,26.03989 163.5,28 68.31586,7.43458 91.06802,-2.65641 91.06802,-2.65641 0,0 172.41095,-44.13785 313.43198,-9.34359 29.51556,7.2824 50.81876,22.5471 69.50969,23.23748 80.67141,2.97972 135.42311,-55.99612 172.90451,-32.87612 13.3743,8.24981 13.6574,64.9814 243.6685,57.78811 101.3177,-3.16858 225.6977,2.16407 411.6107,-48.5305 59.9375,-16.3437 111.2865,-15.16269 109.9356,-9.56195 -0.024,0.0995 0.3958,56.75077 0,73.12798 H 0 V 807.1728 Z"
     id="path176"
     sodipodi:nodetypes="cssscsssssscccc" /></svg>
