<?xml version="1.0" encoding="UTF-8" standalone="no"?>
<!-- Created with Inkscape (http://www.inkscape.org/) -->

<svg
   width="1920.2997"
   height="163.7738"
   version="1.1"
   viewBox="0 0 1920.2997 163.7738"
   xml:space="preserve"
   id="svg1"
   xmlns="http://www.w3.org/2000/svg"
   xmlns:svg="http://www.w3.org/2000/svg"><defs
     id="defs1" /><path
     style="fill:#00580b;fill-opacity:1;stroke:none;stroke-width:0.9;stroke-dasharray:none;stroke-opacity:1;paint-order:fill markers stroke"
     d="m 98.5,9.0887619 c 0,0 77,-23.9999999 123,6.0000001 46,30 25,55 123,69.5 98,14.5 145.48867,26.039888 163.5,27.999998 68.31586,7.43458 91.06802,-2.65641 91.06802,-2.65641 0,0 172.41095,-44.137848 313.43198,-9.34359 29.51556,7.2824 50.81876,22.5471 69.50969,23.23748 80.67141,2.97972 135.42311,-55.996118 172.90451,-32.876118 13.3743,8.24981 13.6574,64.981398 243.6685,57.788108 101.3177,-3.16858 225.6977,2.16407 411.6107,-48.5305 59.9375,-16.343698 111.2865,-15.162688 109.9356,-9.561948 -0.024,0.0995 0.3958,56.750768 0,73.127978 H 0 V 26.668632 Z"
     id="path176" /></svg>
